# 3ds Max Wavefront OBJ Exporter v0.97b - (c)2007 guruware
# 创建的文件:12.08.2014 14:33:08

mtllib coin.mtl

#
# object Cylinder001
#

v  2.5871 0.0000 -0.0000
v  2.4311 0.8848 0.0000
v  2.4311 0.8848 0.2528
v  2.5871 -0.0000 0.2528
v  1.9818 1.6630 0.0000
v  1.9818 1.6630 0.2528
v  1.2935 2.2405 0.0000
v  1.2935 2.2405 0.2528
v  0.4492 2.5478 0.0000
v  0.4492 2.5478 0.2528
v  -0.4492 2.5478 0.0000
v  -0.4492 2.5478 0.2528
v  -1.2935 2.2405 0.0000
v  -1.2935 2.2405 0.2528
v  -1.9818 1.6630 0.0000
v  -1.9818 1.6630 0.2528
v  -2.4311 0.8848 0.0000
v  -2.4311 0.8848 0.2528
v  -2.5871 0.0000 0.0000
v  -2.5871 0.0000 0.2528
v  -2.4311 -0.8848 -0.0000
v  -2.4311 -0.8848 0.2528
v  -1.9818 -1.6630 -0.0000
v  -1.9818 -1.6630 0.2528
v  -1.2935 -2.2405 -0.0000
v  -1.2935 -2.2405 0.2528
v  -0.4492 -2.5478 -0.0000
v  -0.4492 -2.5478 0.2528
v  0.4492 -2.5478 -0.0000
v  0.4492 -2.5478 0.2528
v  1.2935 -2.2405 -0.0000
v  1.2935 -2.2405 0.2528
v  1.9818 -1.6630 -0.0000
v  1.9818 -1.6630 0.2528
v  2.4311 -0.8848 -0.0000
v  2.4311 -0.8848 0.2528
# 36 vertices

vn 1.0000 -0.0000 -0.0000
vn 0.9397 0.3420 0.0000
vn 0.7660 0.6428 0.0000
vn 0.5000 0.8660 0.0000
vn 0.1736 0.9848 0.0000
vn -0.1736 0.9848 0.0000
vn -0.5000 0.8660 0.0000
vn -0.7660 0.6428 0.0000
vn -0.9397 0.3420 0.0000
vn -1.0000 0.0000 0.0000
vn -0.9397 -0.3420 -0.0000
vn -0.7660 -0.6428 -0.0000
vn -0.5000 -0.8660 -0.0000
vn -0.1736 -0.9848 -0.0000
vn 0.1736 -0.9848 -0.0000
vn 0.5000 -0.8660 -0.0000
vn 0.7660 -0.6428 -0.0000
vn 0.9397 -0.3420 -0.0000
vn 0.0000 0.0000 -1.0000
vn 0.0000 -0.0000 1.0000
# 20 vertex normals

vt 0.7500 0.0000 1.0000
vt 0.8056 0.0000 1.0000
vt 0.8056 1.0000 1.0000
vt 0.7500 1.0000 1.0000
vt 0.8611 0.0000 1.0000
vt 0.8611 1.0000 1.0000
vt 0.9167 0.0000 1.0000
vt 0.9167 1.0000 1.0000
vt 0.9722 0.0000 1.0000
vt 0.9722 1.0000 1.0000
vt 1.0278 0.0000 1.0000
vt 1.0278 1.0000 1.0000
vt 0.0278 0.0000 1.0000
vt 0.0833 0.0000 1.0000
vt 0.0833 1.0000 1.0000
vt 0.0278 1.0000 1.0000
vt 0.1389 0.0000 1.0000
vt 0.1389 1.0000 1.0000
vt 0.1944 0.0000 1.0000
vt 0.1944 1.0000 1.0000
vt 0.2500 0.0000 1.0000
vt 0.2500 1.0000 1.0000
vt 0.3056 0.0000 1.0000
vt 0.3056 1.0000 1.0000
vt 0.3611 0.0000 1.0000
vt 0.3611 1.0000 1.0000
vt 0.4167 0.0000 1.0000
vt 0.4167 1.0000 1.0000
vt 0.4722 0.0000 1.0000
vt 0.4722 1.0000 1.0000
vt 0.5278 0.0000 1.0000
vt 0.5278 1.0000 1.0000
vt 0.5833 0.0000 1.0000
vt 0.5833 1.0000 1.0000
vt 0.6389 0.0000 1.0000
vt 0.6389 1.0000 1.0000
vt 0.6944 0.0000 1.0000
vt 0.6944 1.0000 1.0000
vt 0.8214 0.8830 -0.2500
vt 0.9330 0.7500 -0.2500
vt 0.9924 0.5868 -0.2500
vt 0.9924 0.4132 -0.2500
vt 0.9330 0.2500 -0.2500
vt 0.8214 0.1170 -0.2500
vt 0.6710 0.0302 -0.2500
vt 0.5000 0.0000 -0.2500
vt 0.3290 0.0302 -0.2500
vt 0.1786 0.1170 -0.2500
vt 0.0670 0.2500 -0.2500
vt 0.0076 0.4132 -0.2500
vt 0.0076 0.5868 -0.2500
vt 0.0670 0.7500 -0.2500
vt 0.1786 0.8830 -0.2500
vt 0.3290 0.9698 -0.2500
vt 0.5000 1.0000 -0.2500
vt 0.6710 0.9698 -0.2500
vt 0.3290 0.9698 0.2500
vt 0.1786 0.8830 0.2500
vt 0.0670 0.7500 0.2500
vt 0.0076 0.5868 0.2500
vt 0.0076 0.4132 0.2500
vt 0.0670 0.2500 0.2500
vt 0.1786 0.1170 0.2500
vt 0.3290 0.0302 0.2500
vt 0.5000 0.0000 0.2500
vt 0.6710 0.0302 0.2500
vt 0.8214 0.1170 0.2500
vt 0.9330 0.2500 0.2500
vt 0.9924 0.4132 0.2500
vt 0.9924 0.5868 0.2500
vt 0.9330 0.7500 0.2500
vt 0.8214 0.8830 0.2500
vt 0.6710 0.9698 0.2500
vt 0.5000 1.0000 0.2500
# 74 texture coords

g Cylinder001
usemtl 01___Default
s 8
f 1/1/1 2/2/2 3/3/2 
f 3/3/2 4/4/1 1/1/1 
f 2/2/2 5/5/3 6/6/3 
f 6/6/3 3/3/2 2/2/2 
f 5/5/3 7/7/4 8/8/4 
f 8/8/4 6/6/3 5/5/3 
f 7/7/4 9/9/5 10/10/5 
f 10/10/5 8/8/4 7/7/4 
f 9/9/5 11/11/6 12/12/6 
f 12/12/6 10/10/5 9/9/5 
f 11/13/6 13/14/7 14/15/7 
f 14/15/7 12/16/6 11/13/6 
f 13/14/7 15/17/8 16/18/8 
f 16/18/8 14/15/7 13/14/7 
f 15/17/8 17/19/9 18/20/9 
f 18/20/9 16/18/8 15/17/8 
f 17/19/9 19/21/10 20/22/10 
f 20/22/10 18/20/9 17/19/9 
f 19/21/10 21/23/11 22/24/11 
f 22/24/11 20/22/10 19/21/10 
f 21/23/11 23/25/12 24/26/12 
f 24/26/12 22/24/11 21/23/11 
f 23/25/12 25/27/13 26/28/13 
f 26/28/13 24/26/12 23/25/12 
f 25/27/13 27/29/14 28/30/14 
f 28/30/14 26/28/13 25/27/13 
f 27/29/14 29/31/15 30/32/15 
f 30/32/15 28/30/14 27/29/14 
f 29/31/15 31/33/16 32/34/16 
f 32/34/16 30/32/15 29/31/15 
f 31/33/16 33/35/17 34/36/17 
f 34/36/17 32/34/16 31/33/16 
f 33/35/17 35/37/18 36/38/18 
f 36/38/18 34/36/17 33/35/17 
f 35/37/18 1/1/1 4/4/1 
f 4/4/1 36/38/18 35/37/18 
s 1
f 33/39/19 31/40/19 29/41/19 
f 29/41/19 27/42/19 25/43/19 
f 25/43/19 23/44/19 21/45/19 
f 29/41/19 25/43/19 21/45/19 
f 21/45/19 19/46/19 17/47/19 
f 17/47/19 15/48/19 13/49/19 
f 21/45/19 17/47/19 13/49/19 
f 13/49/19 11/50/19 9/51/19 
f 9/51/19 7/52/19 5/53/19 
f 13/49/19 9/51/19 5/53/19 
f 21/45/19 13/49/19 5/53/19 
f 29/41/19 21/45/19 5/53/19 
f 5/53/19 2/54/19 1/55/19 
f 29/41/19 5/53/19 1/55/19 
f 33/39/19 29/41/19 1/55/19 
f 35/56/19 33/39/19 1/55/19 
f 3/57/20 6/58/20 8/59/20 
f 8/59/20 10/60/20 12/61/20 
f 12/61/20 14/62/20 16/63/20 
f 8/59/20 12/61/20 16/63/20 
f 16/63/20 18/64/20 20/65/20 
f 20/65/20 22/66/20 24/67/20 
f 16/63/20 20/65/20 24/67/20 
f 24/67/20 26/68/20 28/69/20 
f 28/69/20 30/70/20 32/71/20 
f 24/67/20 28/69/20 32/71/20 
f 16/63/20 24/67/20 32/71/20 
f 8/59/20 16/63/20 32/71/20 
f 32/71/20 34/72/20 36/73/20 
f 8/59/20 32/71/20 36/73/20 
f 3/57/20 8/59/20 36/73/20 
f 4/74/20 3/57/20 36/73/20 
# 68 faces

